HIERARCHY
ROOT Hips
{
	OFFSET 0.000000 0.000000 0.000000
	CHANNELS 6 Xposition Yposition Zposition Xrotation Yrotation Zrotation
	JOINT LeftUpLeg_virtual
	{
		OFFSET 0.000000 0.000000 0.000000
		CHANNELS 3 Xrotation Yrotation Zrotation
		JOINT LeftUpLeg
		{
			OFFSET 10.205400 -3.823500 0.155100
			CHANNELS 3 Xrotation Yrotation Zrotation
			JOINT LeftLeg
			{
				OFFSET 0.708757 -12.982077 0.567790
				CHANNELS 3 Xrotation Yrotation Zrotation
				JOINT LeftFoot
				{
					OFFSET -0.708756 -10.717838 -2.184338
					CHANNELS 3 Xrotation Yrotation Zrotation
					JOINT LeftToeBase
					{
						OFFSET 0.108149 -7.191104 7.560241
						CHANNELS 3 Xrotation Yrotation Zrotation
						JOINT LeftToe_End
						{
							OFFSET 0.070230 0.081724 4.490308
							CHANNELS 3 Xrotation Yrotation Zrotation
							End Site
							{
								OFFSET 0 0 0
							}
						}
					}
				}
			}
		}
	}
	JOINT RightUpLeg_virtual
	{
		OFFSET 0.000000 0.000000 0.000000
		CHANNELS 3 Xrotation Yrotation Zrotation
		JOINT RightUpLeg
		{
			OFFSET -10.205400 -3.823500 0.005500
			CHANNELS 3 Xrotation Yrotation Zrotation
			JOINT RightLeg
			{
				OFFSET -0.708756 -12.982134 0.610632
				CHANNELS 3 Xrotation Yrotation Zrotation
				JOINT RightFoot
				{
					OFFSET 0.708754 -10.717769 -1.945823
					CHANNELS 3 Xrotation Yrotation Zrotation
					JOINT RightToeBase
					{
						OFFSET -0.108140 -7.191069 7.372968
						CHANNELS 3 Xrotation Yrotation Zrotation
						JOINT RightToe_End
						{
							OFFSET -0.070227 0.081735 4.479403
							CHANNELS 3 Xrotation Yrotation Zrotation
							End Site
							{
								OFFSET 0 0 0
							}
						}
					}
				}
			}
		}
	}
	JOINT Spine_virtual
	{
		OFFSET 0.000000 0.000000 0.000000
		CHANNELS 3 Xrotation Yrotation Zrotation
		JOINT Spine
		{
			OFFSET 0.000000 6.876099 0.125700
			CHANNELS 3 Xrotation Yrotation Zrotation
			JOINT Spine1
			{
				OFFSET 0.000000 5.730043 0.104720
				CHANNELS 3 Xrotation Yrotation Zrotation
				JOINT Spine1_split
				{
					OFFSET 0.000000 5.730043 0.104720
					CHANNELS 3 Xrotation Yrotation Zrotation
					JOINT Spine2
					{
						OFFSET 0.000000 5.730043 0.104720
						CHANNELS 3 Xrotation Yrotation Zrotation
						JOINT Neck_virtual
						{
							OFFSET 0.000000 0.000000 0.000000
							CHANNELS 3 Xrotation Yrotation Zrotation
							JOINT Neck
							{
								OFFSET 0.000000 10.314075 0.188496
								CHANNELS 3 Xrotation Yrotation Zrotation
								JOINT Head
								{
									OFFSET 0.000000 7.643700 -2.377400
									CHANNELS 3 Xrotation Yrotation Zrotation
									JOINT HeadTop_End
									{
										OFFSET 0.000000 43.788605 -13.619600
										CHANNELS 3 Xrotation Yrotation Zrotation
										End Site
										{
											OFFSET 0 0 0
										}
									}
								}
							}
						}
						JOINT LeftShoulder_virtual
						{
							OFFSET 0.000000 0.000000 0.000000
							CHANNELS 3 Xrotation Yrotation Zrotation
							JOINT LeftShoulder
							{
								OFFSET 2.196100 4.412489 0.087492
								CHANNELS 3 Xrotation Yrotation Zrotation
								JOINT LeftShoulder_split
								{
									OFFSET 2.196100 4.412489 0.087492
									CHANNELS 3 Xrotation Yrotation Zrotation
									JOINT LeftArm
									{
										OFFSET 8.771219 -2.981674 -0.026999
										CHANNELS 3 Xrotation Yrotation Zrotation
										JOINT LeftForeArm
										{
											OFFSET 8.512804 0.000000 -0.000000
											CHANNELS 3 Xrotation Yrotation Zrotation
											JOINT LeftHand
											{
												OFFSET 18.484802 0.000000 -0.000000
												CHANNELS 3 Xrotation Yrotation Zrotation
												End Site
												{
													OFFSET 0 0 0
												}
											}
										}
									}
								}
							}
						}
						JOINT RightShoulder_virtual
						{
							OFFSET 0.000000 0.000000 0.000000
							CHANNELS 3 Xrotation Yrotation Zrotation
							JOINT RightShoulder
							{
								OFFSET -2.196100 4.412496 0.070690
								CHANNELS 3 Xrotation Yrotation Zrotation
								JOINT RightShoulder_split
								{
									OFFSET -2.196100 4.412496 0.070690
									CHANNELS 3 Xrotation Yrotation Zrotation
									JOINT RightArm
									{
										OFFSET -8.771282 -2.981682 -0.094208
										CHANNELS 3 Xrotation Yrotation Zrotation
										JOINT RightForeArm
										{
											OFFSET -8.494598 0.000000 0.000000
											CHANNELS 3 Xrotation Yrotation Zrotation
											JOINT RightHand
											{
												OFFSET -18.483803 0.000000 0.000001
												CHANNELS 3 Xrotation Yrotation Zrotation
												End Site
												{
													OFFSET 0 0 0
												}
											}
										}
									}
								}
							}
						}
					}
				}
			}
		}
	}
}
MOTION
Frames: 10
Frame Time: 0.03333333
0.306137 32.869034 -0.594229 0.000000 0.000000 0.000000 -0.586988 -0.380511 -0.292408 -12.533751 3.777224 11.165117 34.473816 2.343297 0.462514 -20.214122 3.253497 -11.427654 0.000002 -0.000002 -0.000001 0.000000 0.000000 0.000000 -0.586988 -0.380511 -0.292408 -14.724322 2.789684 -5.184310 36.264924 -0.311097 -1.742740 -20.604135 -2.494085 7.770388 -0.000093 -0.000002 0.000003 0.000000 0.000000 0.000000 -0.586988 -0.380511 -0.292408 0.360682 -0.169157 0.244297 -1.750145 -0.199001 0.196420 0.000000 0.000000 0.000000 0.000000 0.000000 0.000000 -1.750108 -0.188403 0.203701 -0.289761 -0.205837 -0.385588 4.702786 -2.136756 3.065841 0.000000 0.000000 0.000000 -1.750108 -0.188403 0.203701 0.993395 -13.202434 -11.017472 0.000000 0.000000 0.000000 16.778891 -19.384222 -67.597385 -0.000009 -17.727288 0.000001 0.000000 0.000000 0.000000 -1.750108 -0.188403 0.203701 1.651826 9.058845 10.503860 0.000000 0.000000 0.000000 6.412949 25.534650 64.587512 -0.000016 12.370169 -0.000006 0.000000 0.000000 0.000000 
0.319944 32.872154 -0.601910 0.000000 0.000000 0.000000 -0.562899 -0.348188 -0.210919 -12.569620 3.862744 11.003515 34.370485 2.294303 0.570860 -20.120658 3.244103 -11.462943 -0.000041 -0.000002 0.000052 0.000000 0.000000 0.000000 -0.562899 -0.348188 -0.210919 -14.774597 2.738165 -5.390874 36.357261 -0.272135 -1.616388 -20.661595 -2.494644 7.743239 -0.000126 -0.000001 0.000003 0.000000 0.000000 0.000000 -0.562899 -0.348188 -0.210919 0.388526 -0.127840 0.202023 -1.758987 -0.152911 0.185722 0.000000 0.000000 0.000000 0.000000 0.000000 0.000000 -1.758852 -0.144486 0.191302 -0.234934 -0.223743 -0.429562 4.682464 -2.228106 3.016739 0.000000 0.000000 0.000000 -1.758852 -0.144486 0.191302 0.994567 -13.331128 -11.067192 0.000000 0.000000 0.000000 16.711227 -19.428798 -67.559416 -0.000000 -17.694309 0.000001 0.000000 0.000000 0.000000 -1.758852 -0.144486 0.191302 1.655703 9.081061 10.518660 0.000000 0.000000 0.000000 6.559964 25.463678 64.487334 0.000005 12.345258 -0.000011 0.000000 0.000000 0.000000 
0.344299 32.878910 -0.609138 0.000000 0.000000 0.000000 -0.563548 -0.371604 -0.130831 -12.490984 3.864165 10.870857 34.217690 2.345603 0.511862 -20.039519 3.225419 -11.444452 -0.000003 0.000002 0.000013 0.000000 0.000000 0.000000 -0.563548 -0.371604 -0.130831 -14.811120 2.721233 -5.628165 36.393857 -0.169016 -1.468857 -20.658218 -2.488954 7.713281 -0.000140 0.000000 0.000000 0.000000 0.000000 0.000000 -0.563548 -0.371604 -0.130831 0.467287 -0.074536 0.164220 -1.726140 -0.094856 0.195358 0.000000 0.000000 0.000000 0.000000 0.000000 0.000000 -1.725988 -0.088045 0.198933 -0.219295 -0.239945 -0.477885 4.665765 -2.296425 2.991046 0.000000 0.000000 0.000000 -1.725988 -0.088045 0.198933 0.991729 -13.323544 -11.148020 0.000000 0.000000 0.000000 16.457985 -19.698184 -67.507343 0.000005 -17.673550 0.000007 0.000000 0.000000 0.000000 -1.725988 -0.088045 0.198933 1.661482 9.155294 10.510906 0.000000 0.000000 0.000000 6.689141 25.490519 64.312986 -0.000003 12.254238 -0.000024 0.000000 0.000000 0.000000 
0.378003 32.892017 -0.624069 0.000000 0.000000 0.000000 -0.577490 -0.440231 -0.044642 -12.340876 3.771227 10.658345 34.020325 2.572306 0.505234 -19.940012 3.226742 -11.527056 -0.000004 0.000001 -0.000001 0.000000 0.000000 0.000000 -0.577490 -0.440231 -0.044642 -14.854915 2.744071 -5.885400 36.367455 -0.051310 -1.341764 -20.571063 -2.488128 7.721280 0.000004 0.000000 0.000000 0.000000 0.000000 0.000000 -0.577490 -0.440231 -0.044642 0.596135 -0.001603 0.118144 -1.620710 -0.015913 0.201612 0.000000 0.000000 0.000000 0.000000 0.000000 0.000000 -1.620687 -0.010844 0.202122 -0.183771 -0.218591 -0.586454 4.269680 -2.307494 3.202154 0.000000 0.000000 0.000000 -1.620687 -0.010844 0.202122 0.989890 -13.432072 -11.270833 0.000000 0.000000 0.000000 15.974706 -19.827764 -67.490103 0.000007 -17.727054 -0.000001 0.000000 0.000000 0.000000 -1.620687 -0.010844 0.202122 1.677966 9.285103 10.547347 0.000000 0.000000 0.000000 6.831338 25.636401 64.012048 -0.000005 12.156170 -0.000012 0.000000 0.000000 0.000000 
0.419807 32.899292 -0.660151 0.000000 0.000000 0.000000 -0.504809 -0.527106 0.003889 -12.366131 3.290895 10.257766 34.067655 3.267066 0.774711 -19.910491 3.317881 -11.913743 -0.000038 -0.000000 0.000039 0.000000 0.000000 0.000000 -0.504809 -0.527106 0.003889 -15.127599 2.438844 -6.060185 36.369555 0.369050 -1.498906 -20.412971 -2.489106 7.762079 0.000013 0.000002 -0.000000 0.000000 0.000000 0.000000 -0.504809 -0.527106 0.003889 0.791794 0.042439 0.033617 -1.416820 0.032361 0.182689 0.000000 0.000000 0.000000 0.000000 0.000000 0.000000 -1.416967 0.034538 0.181314 -0.196661 -0.283262 -0.562395 3.587527 -2.527386 3.208847 0.000000 0.000000 0.000000 -1.416967 0.034538 0.181314 0.988375 -13.373533 -11.280126 0.000000 0.000000 0.000000 15.352522 -20.245309 -67.493723 0.000004 -17.915192 0.000011 0.000000 0.000000 0.000000 -1.416967 0.034538 0.181314 1.697842 9.302913 10.690738 0.000000 0.000000 0.000000 6.871399 26.197377 63.484669 0.000014 12.093670 -0.000008 0.000000 0.000000 0.000000 
0.460653 32.898788 -0.719263 0.000000 0.000000 0.000000 -0.325262 -0.678852 -0.066858 -12.669127 2.607409 10.005998 34.474499 4.112339 0.991885 -20.027190 3.453991 -12.390086 0.000001 -0.000001 -0.000002 0.000000 0.000000 0.000000 -0.325262 -0.678852 -0.066858 -15.584086 2.231084 -5.923650 36.291281 0.697618 -1.910512 -20.099548 -2.508913 7.925538 -0.000092 -0.000001 0.000002 0.000000 0.000000 0.000000 -0.325262 -0.678852 -0.066858 1.035358 0.064685 -0.059262 -1.126574 0.055725 0.161242 0.000000 0.000000 0.000000 0.000000 0.000000 0.000000 -1.126868 0.056063 0.159081 -0.282474 -0.337568 -0.460437 2.552432 -2.645780 3.422394 0.000000 0.000000 0.000000 -1.126868 0.056063 0.159081 0.989570 -13.280080 -11.185789 0.000000 0.000000 0.000000 14.662736 -20.827999 -67.491394 0.000003 -18.275460 -0.000000 0.000000 0.000000 0.000000 -1.126868 0.056063 0.159081 1.729823 9.398955 10.871330 0.000000 0.000000 0.000000 6.780485 27.024058 62.846722 -0.000000 12.048642 0.000016 0.000000 0.000000 0.000000 
0.497106 32.876358 -0.800114 0.000000 0.000000 0.000000 -0.029166 -1.102756 -0.294983 -13.205613 1.982828 10.156094 35.335113 4.938619 0.846535 -20.445005 3.595688 -12.684653 -0.000065 0.000003 0.000078 0.000000 0.000000 0.000000 -0.029166 -1.102756 -0.294983 -16.321171 2.466137 -5.557225 36.198640 0.671999 -2.072332 -19.578841 -2.486551 8.048225 -0.000104 -0.000001 -0.000004 0.000000 0.000000 0.000000 -0.029166 -1.102756 -0.294983 1.302699 0.087156 -0.141344 -0.812834 0.076874 0.083535 0.000000 0.000000 0.000000 0.000000 0.000000 0.000000 -0.813226 0.075473 0.080565 -0.300028 -0.370209 -0.289494 1.348866 -2.717222 3.887562 0.000000 0.000000 0.000000 -0.813226 0.075473 0.080565 0.995263 -13.605470 -11.218902 0.000000 0.000000 0.000000 13.760360 -20.612743 -67.419062 -0.000012 -18.796442 -0.000002 0.000000 0.000000 0.000000 -0.813226 0.075473 0.080565 1.793090 9.864640 11.018058 0.000000 0.000000 0.000000 6.610188 27.948552 62.187329 0.000008 12.088191 -0.000007 0.000000 0.000000 0.000000 
0.521303 32.832027 -0.900295 0.000000 0.000000 0.000000 0.365357 -1.680288 -0.724338 -14.159093 1.728022 10.655751 36.741036 5.397074 0.787149 -21.153154 3.766048 -12.881937 -0.000002 0.000002 0.000003 0.000000 0.000000 0.000000 0.365357 -1.680288 -0.724338 -17.202373 2.983717 -4.994782 35.946425 0.391563 -1.842747 -18.846995 -2.388543 7.998096 -0.000043 -0.000000 0.000003 0.000000 0.000000 0.000000 0.365357 -1.680288 -0.724338 1.594431 0.145021 -0.236228 -0.467653 0.134619 -0.012820 0.000000 0.000000 0.000000 0.000000 0.000000 0.000000 -0.468246 0.130838 -0.017873 -0.378662 -0.480261 -0.031796 0.717266 -3.075974 4.437737 0.000000 0.000000 0.000000 -0.468246 0.130838 -0.017873 1.012068 -14.095829 -11.045053 0.000000 0.000000 0.000000 12.935856 -20.528675 -67.378600 -0.000011 -19.391909 0.000009 0.000000 0.000000 0.000000 -0.468246 0.130838 -0.017873 1.838481 10.195067 11.119178 0.000000 0.000000 0.000000 6.355828 28.999180 61.602835 -0.000003 12.344850 0.000015 0.000000 0.000000 0.000000 
0.527657 32.771278 -1.017902 0.000000 0.000000 0.000000 0.748568 -2.558015 -1.376257 -15.238777 1.654341 11.457618 38.616646 5.813089 0.954724 -22.180723 4.063811 -13.292278 -0.000039 0.000001 0.000046 0.000000 0.000000 0.000000 0.748568 -2.558015 -1.376257 -18.186050 3.672099 -4.075247 35.398466 0.288481 -1.640661 -17.770938 -2.227150 7.872303 -0.000109 0.000000 0.000000 0.000000 0.000000 0.000000 0.748568 -2.558015 -1.376257 1.970280 0.175179 -0.318679 -0.101663 0.160544 -0.115333 0.000000 0.000000 0.000000 0.000000 0.000000 0.000000 -0.102164 0.153622 -0.121392 -0.283407 -0.579356 0.331734 -0.228186 -3.356869 5.060051 0.000000 0.000000 0.000000 -0.102164 0.153622 -0.121392 1.026930 -14.637599 -10.975142 0.000000 0.000000 0.000000 12.099706 -19.932898 -67.040246 0.000002 -19.996489 0.000015 0.000000 0.000000 0.000000 -0.102164 0.153622 -0.121392 1.946496 11.098898 11.250869 0.000000 0.000000 0.000000 6.051360 29.630860 60.787461 -0.000002 13.060272 0.000005 0.000000 0.000000 0.000000 
0.522278 32.705296 -1.154890 0.000000 0.000000 0.000000 1.241513 -3.810193 -2.209417 -16.434806 1.754321 12.619662 40.736566 6.250347 1.144027 -23.410125 4.458886 -13.829898 -0.000023 -0.000000 0.000031 0.000000 0.000000 0.000000 1.241513 -3.810193 -2.209417 -19.394966 4.325490 -2.825832 34.484163 0.186412 -1.342828 -16.271362 -1.959430 7.558326 -0.205202 0.000002 0.000000 0.000000 0.000000 0.000000 1.241513 -3.810193 -2.209417 2.412165 0.249552 -0.400949 0.301350 0.234393 -0.246123 0.000000 0.000000 0.000000 0.000000 0.000000 0.000000 0.301110 0.220712 -0.255147 -0.312637 -0.607360 0.698263 -1.044149 -3.473983 6.334542 0.000000 0.000000 0.000000 0.301110 0.220712 -0.255147 1.030586 -15.107760 -11.140436 0.000000 0.000000 0.000000 11.074332 -18.577495 -66.208077 0.000006 -20.846361 -0.000007 0.000000 0.000000 0.000000 0.301110 0.220712 -0.255147 2.011675 11.666723 11.299483 0.000000 0.000000 0.000000 5.739358 30.628966 60.012248 -0.000005 13.976436 0.000024 0.000000 0.000000 0.000000 
